<svg xmlns="http://www.w3.org/2000/svg" id="vPreload" viewBox="0 0 500 500"><style>.st0{fill:#a61e22}.st1{fill:#9e1d20}.st2{fill:#ce2127}.st3{fill:#dd3226}.st4{fill:#ba2025}.st5{fill:#ee3426}#vPreload path{-webkit-animation:10s vPath infinite;animation:10s vPath infinite}@-webkit-keyframes vPath{25%{fill:#ee3124}50%{fill:#9e0918}75%{fill:#ee3124}}@keyframes vPath{25%{fill:#ee3124}50%{fill:#9e0918}75%{fill:#ee3124}}#vPreload path:nth-of-type(2n){-webkit-animation-delay:.1s;animation-delay:.1s}#vPreload path:nth-of-type(3n){-webkit-animation-delay:.2s;animation-delay:.2s}#vPreload path:nth-of-type(4n){-webkit-animation-delay:.3s;animation-delay:.3s}#vPreload path:nth-of-type(5n){-webkit-animation-delay:.4s;animation-delay:.4s}#vPreload path:nth-of-type(6n){-webkit-animation-delay:.5s;animation-delay:.5s}#vPreload path:nth-of-type(7n){-webkit-animation-delay:.6s;animation-delay:.6s}#vPreload path:nth-of-type(8n){-webkit-animation-delay:.7s;animation-delay:.7s}#vPreload path:nth-of-type(9n){-webkit-animation-delay:.8s;animation-delay:.8s}#vPreload path:nth-of-type(10n){-webkit-animation-delay:.9s;animation-delay:.9s}#vPreload path:nth-of-type(11n){-webkit-animation-delay:1s;animation-delay:1s}#vPreload path:nth-of-type(12n){-webkit-animation-delay:1.1s;animation-delay:1.1s}#vPreload path:nth-of-type(13n){-webkit-animation-delay:1.2s;animation-delay:1.2s}#vPreload path:nth-of-type(14n){-webkit-animation-delay:1.3s;animation-delay:1.3s}#vPreload path:nth-of-type(15n){-webkit-animation-delay:1.4s;animation-delay:1.4s}#vPreload path:nth-of-type(16n){-webkit-animation-delay:1.5s;animation-delay:1.5s}#vPreload path:nth-of-type(17n){-webkit-animation-delay:1.6s;animation-delay:1.6s}#vPreload path:nth-of-type(18n){-webkit-animation-delay:1.7s;animation-delay:1.7s}#vPreload path:nth-of-type(19n){-webkit-animation-delay:1.8s;animation-delay:1.8s}</style><path d="M409.1 272.8h-45.5l45.5-45.5z" class="st0"/><path d="M454.5 318.2h-45.4l45.4-45.4z" class="st0"/><path d="M409.1 272.8v-45.5l45.4 45.5z" class="st0"/><path d="M409.1 272.8h45.4l-45.4 45.4z" class="st0"/><path d="M409.1 272.8v45.4l-45.5-45.4z" class="st0"/><path d="M454.5 227.3v45.5l-45.4-45.5z" class="st0"/><path d="M500 272.8h-45.5l45.5-45.5z" class="st0"/><path d="M454.5 318.2v-45.4l45.5 45.4z" class="st0"/><path d="M454.5 227.3H500l-45.5 45.5z" class="st0"/><path d="M363.6 136.4h45.5l-45.5 45.5z" class="st0"/><path d="M409.1 363.7h-45.5l45.5-45.4v45.4z" class="st1"/><path d="M363.6 318.2h45.5l-45.5 45.5z" class="st1"/><path d="M454.5 318.2v45.5l-45.4-45.5z" class="st1"/><path d="M500 363.7h-45.5l45.5-45.5z" class="st1"/><path d="M454.5 318.2H500l-45.5 45.5z" class="st1"/><path d="M363.6 318.2v-45.4l45.5 45.4z" class="st1"/><path d="M409.1 181.9h-45.5l45.5-45.5z" class="st0"/><path d="M454.5 227.3h-45.4l45.4-45.4z" class="st0"/><path d="M409.1 181.9v-45.5l45.4 45.5z" class="st0"/><path d="M363.6 227.3v-45.4l45.5 45.4z" class="st0"/><path d="M409.1 181.9h45.4l-45.4 45.4z" class="st0"/><path d="M454.5 136.4v45.5l-45.4-45.5z" class="st0"/><path d="M454.5 227.3v-45.4l45.5 45.4z" class="st0"/><path d="M454.5 136.4H500l-45.5 45.5z" class="st0"/><path d="M409.1 91h-45.5l45.5-45.5z" class="st0"/><path d="M409.1 91V45.5L454.5 91z" class="st0"/><path d="M409.1 91h45.4l-45.4 45.4z" class="st0"/><path d="M363.6 45.5h45.5L363.6 91z" class="st0"/><path d="M409.1 91v45.4L363.6 91z" class="st0"/><path d="M454.5 136.4V91l45.5 45.4z" class="st0"/><path d="M409.1 363.7h-45.6l45.6-45.5z" class="st0"/><path d="M363.6 318.2v-45.4l45.6 45.4z" class="st2"/><path d="M363.6 318.2h45.6l-45.6 45.5z" class="st2"/><path d="M409.1 272.8v45.4l-45.5-45.4h45.5z" class="st2"/><path d="M454.5 318.2H409l45.5-45.4v45.4z" class="st3"/><path d="M500 363.7h-45.5l45.5-45.5z" class="st2"/><path d="M454.5 318.2v-45.4l45.5 45.4z" class="st2"/><path d="M409.1 363.7v-45.5l45.4 45.5z" class="st2"/><path d="M454.5 318.2H500l-45.5 45.5z" class="st2"/><path d="M409.1 272.8h45.4l-45.4 45.4z" class="st2"/><path d="M90.9 409.1H45.5l45.4-45.5z" class="st1"/><path d="M90.9 409.1v-45.5l45.5 45.5z" class="st1"/><path d="M181.8 409.1h-45.4l45.4-45.5z" class="st1"/><path d="M181.8 409.1v-45.5l45.6 45.5z" class="st1"/><path d="M136.4 363.7h45.4l-45.4 45.5z" class="st1"/><path d="M227.3 363.7v45.5l-45.6-45.5z" class="st1"/><path d="M272.7 409.1h-45.5l45.5-45.5v45.5z" class="st0"/><path d="M318.2 363.7v45.5l-45.5-45.5z" class="st1"/><path d="M363.6 409.1h-45.4l45.4-45.5z" class="st1"/><path d="M318.2 363.7h45.4l-45.4 45.5z" class="st1"/><path d="M409.1 363.7v45.5l-45.6-45.5z" class="st1"/><path d="M454.5 409.1h-45.4l45.4-45.5z" class="st1"/><path d="M454.5 409.1v-45.5l45.5 45.5z" class="st1"/><path d="M409.1 363.7h45.5l-45.5 45.5v-45.5z" class="st4"/><path d="M272.7 318.2v-45.4l45.5 45.4z" class="st1"/><path d="M227.3 272.8h45.5l-45.5 45.4v-45.4z" class="st0"/><path d="M318.2 363.7v-45.4l45.5 45.4h-45.5z" class="st1"/><path d="M500 272.8v45.4l-45.5-45.4H500z" class="st2"/><path d="M409.1 91h45.5l-45.5 45.4V91z" class="st5"/><path d="M409.1 272.8h-45.6l45.6-45.5z" class="st2"/><path d="M363.6 227.3v-45.5l45.6 45.5z" class="st2"/><path d="M363.6 227.3h45.5l-45.5 45.4v-45.4z" class="st4"/><path d="M409.1 181.9v45.5l-45.6-45.5z" class="st2"/><path d="M500 272.8h-45.5l45.5-45.5z" class="st2"/><path d="M454.5 227.3v-45.5l45.5 45.5z" class="st2"/><path d="M409.1 272.8v-45.5l45.4 45.5z" class="st2"/><path d="M454.5 227.3H500l-45.5 45.5z" class="st2"/><path d="M409.1 181.9h45.4l-45.4 45.5z" class="st2"/><path d="M500 181.9v45.5l-45.5-45.5H500z" class="st3"/><path d="M363.6 136.4V91l45.6 45.4z" class="st2"/><path d="M363.6 136.4h45.6l-45.6 45.5z" class="st2"/><path d="M409.1 181.9v-45.5l45.4 45.5z" class="st2"/><path d="M363.6 45.5V0l45.5 45.5h-45.5z" class="st3"/><path d="M454.5 318.2v45.4L409 318.2h45.5z" class="st4"/><path d="M454.5 227.3v45.4L409 227.3h45.5z" class="st2"/><path d="M409.1 91v45.4L363.5 91h45.6z" class="st2"/><path d="M454.5 136.4h-45.4L454.5 91z" class="st5"/><path d="M500 181.9h-45.5l45.5-45.5z" class="st5"/><path d="M454.5 136.4V91l45.5 45.4h-45.5z" class="st3"/><path d="M454.5 136.4v45.5l-45.4-45.5z" class="st5"/><path d="M500 91v45.4L454.5 91z" class="st5"/><path d="M454.5 227.3h-45.4l45.4-45.5z" class="st5"/><path d="M409.1 181.9h-45.5l45.5-45.4v45.4z" class="st2"/><path d="M454.5 136.4H500l-45.5 45.4v-45.4z" class="st3"/><path d="M409.1 91h-45.6l45.6-45.5z" class="st5"/><path d="M363.6 45.5h45.5L363.6 91V45.5z" class="st3"/><path d="M409.1.1v45.5L363.5.1z" class="st5"/><path d="M454.5 45.5h-45.4L454.5 0z" class="st5"/><path d="M500 91h-45.5L500 45.5z" class="st5"/><path d="M454.5 45.5V0L500 45.5z" class="st5"/><path d="M409.1 91V45.5L454.5 91z" class="st5"/><path d="M409.1.1h45.4l-45.4 45.5z" class="st5"/><path d="M454.5 45.5V91l-45.4-45.5z" class="st5"/><path d="M500 .1v45.5L454.5.1z" class="st5"/><path d="M454.5 45.5H500L454.5 91z" class="st5"/><path d="M90.9 500v-45.4l45.5 45.4H90.9z" class="st0"/><path d="M90.9 500H45.5l45.4-45.4z" class="st1"/><path d="M181.8 500h-45.4l45.4-45.4z" class="st1"/><path d="M181.8 409.1h-45.4l45.4-45.4z" class="st0"/><path d="M90.9 318.2h45.5l-45.5 45.5z" class="st0"/><path d="M45.5 272.8H0l45.5-45.5z" class="st0"/><path d="M90.9 318.2H45.5l45.4-45.4z" class="st0"/><path d="M45.5 272.8v-45.5l45.4 45.5z" class="st0"/><path d="M0 318.2v-45.4l45.5 45.4z" class="st0"/><path d="M45.5 272.8h45.4l-45.4 45.4z" class="st0"/><path d="M0 227.3h45.5L0 272.8z" class="st0"/><path d="M45.5 272.8v45.4L0 272.8h45.5z" class="st5"/><path d="M136.4 272.8H90.9l45.5-45.5z" class="st0"/><path d="M181.8 318.2h-45.4l45.4-45.4z" class="st0"/><path d="M90.9 318.2v-45.4l45.5 45.4z" class="st0"/><path d="M227.3 272.8h-45.5l45.5-45.5z" class="st0"/><path d="M272.7 318.2h-45.4l45.4-45.4z" class="st0"/><path d="M227.3 272.8v-45.5l45.4 45.5z" class="st0"/><path d="M227.3 272.8h45.4l-45.4 45.4z" class="st0"/><path d="M227.3 272.8v45.4l-45.5-45.4z" class="st0"/><path d="M272.7 227.3v45.5l-45.4-45.5z" class="st0"/><path d="M318.2 272.8h-45.5l45.5-45.5z" class="st0"/><path d="M363.6 318.2h-45.4l45.4-45.4z" class="st0"/><path d="M318.2 272.8v-45.5l45.4 45.5z" class="st0"/><path d="M272.7 318.2v-45.4l45.5 45.4z" class="st0"/><path d="M318.2 272.8h45.4l-45.4 45.4z" class="st0"/><path d="M272.7 227.3h45.5l-45.5 45.5z" class="st0"/><path d="M181.8 136.4h45.5l-45.5 45.5z" class="st0"/><path d="M90.9 409.1v45.5l-45.4-45.5z" class="st0"/><path d="M409.1 454.6h-45.5l45.5-45.5z" class="st0"/><path d="M454.5 500h-45.4l45.4-45.4z" class="st0"/><path d="M454.5 409.1H500l-45.5 45.4v-45.4z" class="st4"/><path d="M0 409.1v-45.4l45.5 45.4z" class="st0"/><path d="M45.5 454.6H0l45.5-45.4v45.4z" class="st0"/><path d="M45.5 454.6v-45.5l45.4 45.5z" class="st1"/><path d="M0 500v-45.4L45.5 500z" class="st1"/><path d="M45.5 454.6h45.4L45.5 500z" class="st1"/><path d="M0 409.1h45.5L0 454.6v-45.5z" class="st4"/><path d="M45.5 454.6V500L0 454.6h45.5z" class="st1"/><path d="M136.4 454.6H90.9l45.5-45.5z" class="st0"/><path d="M136.4 454.6v-45.5l45.4 45.5z" class="st0"/><path d="M136.4 454.6h45.4L136.4 500z" class="st0"/><path d="M90.9 409.1h45.5l-45.5 45.5z" class="st0"/><path d="M136.4 454.6V500l-45.5-45.4z" class="st0"/><path d="M181.8 409.1v45.5l-45.4-45.5z" class="st0"/><path d="M227.3 454.6h-45.5l45.5-45.5z" class="st0"/><path d="M272.7 500h-45.4l45.4-45.4z" class="st0"/><path d="M227.3 454.6v-45.5l45.4 45.5z" class="st0"/><path d="M181.8 500v-45.4l45.5 45.4z" class="st0"/><path d="M227.3 454.6h45.4L227.3 500z" class="st0"/><path d="M181.8 409.1h45.5l-45.5 45.5z" class="st0"/><path d="M227.3 454.6V500l-45.5-45.4h45.5z" class="st4"/><path d="M318.2 454.6h-45.5l45.5-45.5z" class="st0"/><path d="M363.6 500h-45.4l45.4-45.4z" class="st0"/><path d="M318.2 454.6v-45.5l45.4 45.5z" class="st0"/><path d="M272.7 500v-45.4l45.5 45.4z" class="st0"/><path d="M318.2 454.6h45.5L318.2 500v-45.4z" class="st4"/><path d="M272.7 409.1h45.5l-45.5 45.5z" class="st0"/><path d="M363.6 409.1v45.5l-45.4-45.5z" class="st0"/><path d="M409.1 454.6v-45.5l45.4 45.5z" class="st0"/><path d="M363.6 500v-45.4l45.5 45.4z" class="st0"/><path d="M409.1 454.6h45.4L409.1 500z" class="st0"/><path d="M363.6 409.1h45.5l-45.5 45.5z" class="st0"/><path d="M409.1 454.6V500l-45.5-45.4h45.5z" class="st0"/><path d="M454.5 409.1v45.4L409 409.1h45.5z" class="st4"/><path d="M500 454.6h-45.5l45.5-45.5z" class="st0"/><path d="M454.5 500v-45.4L500 500z" class="st0"/><path d="M500 454.6V500l-45.5-45.4z" class="st0"/><path d="M45.5 363.7H0l45.5-45.5z" class="st1"/><path d="M90.9 409.1H45.5l45.4-45.4z" class="st1"/><path d="M45.5 363.7v-45.5l45.4 45.5z" class="st1"/><path d="M45.5 363.7h45.4l-45.4 45.4z" class="st1"/><path d="M0 318.2h45.5L0 363.7z" class="st1"/><path d="M45.5 363.7v45.4L0 363.7z" class="st1"/><path d="M90.9 318.2v45.5l-45.4-45.5z" class="st1"/><path d="M136.4 363.7H90.9l45.5-45.5z" class="st1"/><path d="M90.9 409.1v-45.4l45.5 45.4z" class="st1"/><path d="M136.4 363.7h45.4l-45.4 45.4z" class="st1"/><path d="M136.4 363.7v45.4l-45.5-45.4z" class="st1"/><path d="M181.8 318.2v45.5l-45.4-45.5z" class="st1"/><path d="M227.3 363.7h-45.5l45.5-45.5z" class="st1"/><path d="M272.7 409.1h-45.4l45.4-45.4z" class="st1"/><path d="M181.8 409.1v-45.4l45.5 45.4z" class="st1"/><path d="M227.3 363.7h45.4l-45.4 45.4z" class="st1"/><path d="M181.8 318.2h45.5l-45.5 45.5z" class="st1"/><path d="M227.3 363.7v45.4l-45.5-45.4z" class="st1"/><path d="M272.7 318.2v45.5l-45.4-45.5z" class="st1"/><path d="M318.2 363.7h-45.5l45.5-45.5z" class="st1"/><path d="M363.6 409.1h-45.4l45.4-45.4z" class="st1"/><path d="M318.2 363.7v-45.5l45.4 45.5z" class="st1"/><path d="M272.7 409.1v-45.4l45.5 45.4z" class="st1"/><path d="M318.2 363.7h45.4l-45.4 45.4z" class="st1"/><path d="M272.7 318.2h45.5l-45.5 45.5z" class="st1"/><path d="M318.2 363.7v45.4l-45.5-45.4z" class="st1"/><path d="M454.5 409.1H409l45.5-45.4v45.4z" class="st4"/><path d="M363.6 409.1v-45.4l45.5 45.4z" class="st1"/><path d="M454.5 409.1v-45.4l45.5 45.4h-45.5z" class="st4"/><path d="M500 363.7v45.4l-45.5-45.4H500z" class="st4"/><path d="M136.4 272.8v-45.5l45.4 45.5z" class="st1"/><path d="M90.9 227.3h45.5l-45.5 45.5z" class="st1"/><path d="M181.8 318.2v-45.4l45.5 45.4z" class="st1"/><path d="M363.6 227.3v45.5l-45.4-45.5z" class="st1"/><path d="M272.7 409.1v45.5l-45.4-45.5z" class="st1"/><path d="M318.2 454.6V500l-45.5-45.4z" class="st1"/><path d="M136.4 363.7v-45.5l45.4 45.5z" class="st0"/><path d="M45.5 181.9H0l45.5-45.5z" class="st0"/><path d="M90.9 227.3H45.5l45.4-45.4z" class="st0"/><path d="M45.5 181.9v-45.5l45.4 45.5z" class="st0"/><path d="M0 227.3v-45.4l45.5 45.4z" class="st0"/><path d="M0 136.4h45.5L0 181.9z" class="st0"/><path d="M90.9 136.4v45.5l-45.4-45.5z" class="st0"/><path d="M136.4 181.9H90.9l45.5-45.5z" class="st0"/><path d="M181.8 227.3h-45.4l45.4-45.4z" class="st0"/><path d="M136.4 181.9v-45.5l45.4 45.5z" class="st0"/><path d="M90.9 227.3v-45.4l45.5 45.4z" class="st0"/><path d="M136.4 181.9h45.4l-45.4 45.4z" class="st0"/><path d="M90.9 136.4h45.5l-45.5 45.5z" class="st0"/><path d="M136.4 181.9v45.4l-45.5-45.4z" class="st0"/><path d="M181.8 136.4v45.5l-45.4-45.5z" class="st0"/><path d="M227.3 181.9h-45.5l45.5-45.5z" class="st0"/><path d="M272.7 227.3h-45.4l45.4-45.4z" class="st0"/><path d="M227.3 181.9v-45.5l45.4 45.5z" class="st0"/><path d="M181.8 227.3v-45.4l45.5 45.4z" class="st0"/><path d="M227.3 181.9h45.4l-45.4 45.4z" class="st0"/><path d="M272.7 136.4v45.5l-45.4-45.5z" class="st0"/><path d="M363.6 227.3h-45.4l45.4-45.4z" class="st0"/><path d="M318.2 181.9v-45.5l45.4 45.5z" class="st0"/><path d="M272.7 227.3v-45.4l45.5 45.4z" class="st0"/><path d="M318.2 181.9h45.4l-45.4 45.4z" class="st0"/><path d="M272.7 136.4h45.5l-45.5 45.5z" class="st0"/><path d="M363.6 136.4v45.5l-45.4-45.5z" class="st0"/><path d="M45.5 91V45.5L90.9 91z" class="st0"/><path d="M90.9 136.4V91l45.5 45.4z" class="st0"/><path d="M227.3 91h-45.5l45.5-45.5z" class="st0"/><path d="M227.3 91V45.5L272.7 91z" class="st0"/><path d="M227.3 91h45.4l-45.4 45.4z" class="st0"/><path d="M181.8 45.5h45.5L181.8 91z" class="st0"/><path d="M227.3 91v45.4L181.8 91z" class="st0"/><path d="M272.7 136.4V91l45.5 45.4z" class="st0"/><path d="M45.5 363.7h45.4l-45.4 45.5z" class="st0"/><path d="M45.5 363.7H0l45.5-45.5z" class="st0"/><path d="M0 318.2v-45.4l45.5 45.4z" class="st0"/><path d="M0 318.2h45.5L0 363.7z" class="st0"/><path d="M90.9 318.2H45.5l45.4-45.4z" class="st0"/><path d="M136.4 363.7H90.9l45.5-45.5z" class="st0"/><path d="M45.5 363.7v-45.5l45.4 45.5z" class="st0"/><path d="M181.8 318.2h-45.5l45.5-45.4z" class="st0"/><path d="M227.3 363.7h-45.5l45.5-45.5z" class="st0"/><path d="M181.8 318.2v-45.4l45.5 45.4z" class="st0"/><path d="M181.8 318.2h45.5l-45.5 45.5z" class="st0"/><path d="M181.8 318.2v45.5l-45.5-45.5z" class="st0"/><path d="M227.3 272.8v45.4l-45.5-45.4z" class="st0"/><path d="M272.7 318.2h-45.4l45.4-45.4z" class="st0"/><path d="M318.2 363.7h-45.5l45.5-45.5z" class="st0"/><path d="M272.7 318.2v-45.4l45.5 45.4z" class="st0"/><path d="M227.3 363.7v-45.5l45.4 45.5z" class="st0"/><path d="M272.7 318.2h45.5l-45.5 45.4v-45.4z" class="st0"/><path d="M227.3 272.8h45.4l-45.4 45.4z" class="st2"/><path d="M363.6 318.2h-45.5l45.5-45.4z" class="st2"/><path d="M318.2 363.7v-45.4l45.5 45.4h-45.5z" class="st0"/><path d="M363.6 318.2v45.4l-45.5-45.4h45.5z" class="st5"/><path d="M136.4 181.9h45.5l-45.5 45.5z" class="st0"/><path d="M0 409.1v-45.5l45.5 45.5z" class="st1"/><path d="M45.5 363.7v45.5L0 363.7z" class="st1"/><path d="M90.9 409.1H45.5L91 363.6v45.5z" class="st0"/><path d="M136.4 363.7v45.5l-45.5-45.5z" class="st1"/><path d="M181.8 409.1h-45.5l45.5-45.5z" class="st1"/><path d="M136.4 363.7h45.5l-45.5 45.5z" class="st1"/><path d="M227.3 363.7v45.5l-45.5-45.5z" class="st1"/><path d="M272.7 409.1h-45.4l45.4-45.5z" class="st1"/><path d="M272.7 409.1v-45.5l45.5 45.5z" class="st1"/><path d="M227.3 363.7h45.4l-45.4 45.5z" class="st1"/><path d="M363.6 409.1h-45.5l45.5-45.5z" class="st1"/><path d="M318.2 363.7h45.5l-45.5 45.5z" class="st1"/><path d="M90.9 318.2v-45.4l45.5 45.4z" class="st1"/><path d="M45.5 272.8H91l-45.5 45.4v-45.4z" class="st0"/><path d="M136.4 363.7v-45.5l45.5 45.5z" class="st1"/><path d="M318.2 272.8v45.4l-45.5-45.4z" class="st1"/><path d="M318.2 272.8h45.5l-45.5 45.4z" class="st1"/><path d="M45.5 181.9H0l45.5-45.4v45.4z" class="st0"/><path d="M227.3 91h45.5l-45.5 45.4V91z" class="st5"/><path d="M90.9 409.1v-45.5l45.5 45.5z" class="st0"/><path d="M45.5 272.8H0l45.5-45.5z" class="st0"/><path d="M0 227.3v-45.5l45.5 45.5z" class="st0"/><path d="M45.5 181.9v45.5L0 181.9z" class="st0"/><path d="M90.9 227.3H45.5l45.4-45.5z" class="st0"/><path d="M136.4 272.8H90.9l45.5-45.5z" class="st0"/><path d="M90.9 227.3v-45.5l45.5 45.5z" class="st0"/><path d="M45.5 272.8v-45.5l45.4 45.5z" class="st0"/><path d="M90.9 227.3h45.5l-45.5 45.5z" class="st0"/><path d="M45.5 181.9h45.4l-45.4 45.5z" class="st0"/><path d="M90.9 227.3v45.5l-45.4-45.5z" class="st0"/><path d="M136.4 181.9v45.5l-45.5-45.5z" class="st0"/><path d="M181.8 227.3h-45.5l45.5-45.5z" class="st0"/><path d="M227.3 272.8h-45.5l45.5-45.5z" class="st0"/><path d="M181.8 227.3v-45.5l45.5 45.5z" class="st0"/><path d="M136.4 272.8v-45.5l45.5 45.5z" class="st0"/><path d="M181.8 227.3h45.5l-45.5 45.4v-45.4z" class="st4"/><path d="M227.3 181.9v45.5l-45.5-45.5z" class="st2"/><path d="M318.2 272.8h-45.5l45.5-45.5z" class="st2"/><path d="M272.7 227.3v-45.5l45.5 45.5z" class="st2"/><path d="M227.3 272.8v-45.5l45.4 45.5z" class="st2"/><path d="M272.7 227.3h45.5l-45.5 45.5z" class="st2"/><path d="M227.3 181.9h45.4l-45.4 45.5z" class="st2"/><path d="M318.2 181.9v45.5l-45.5-45.5h45.5z" class="st3"/><path d="M363.6 227.3h-45.5l45.5-45.5z" class="st5"/><path d="M363.6 227.3v45.5l-45.5-45.5z" class="st5"/><path d="M0 136.4V91l45.5 45.4z" class="st0"/><path d="M45.5 181.9v-45.5l45.4 45.5z" class="st0"/><path d="M181.8 136.4h-45.5L181.8 91z" class="st2"/><path d="M181.8 136.4V91l45.5 45.4z" class="st2"/><path d="M181.8 136.4h45.5l-45.5 45.5z" class="st2"/><path d="M136.4 91h45.5l-45.5 45.4z" class="st2"/><path d="M181.8 136.4v45.5l-45.5-45.5z" class="st2"/><path d="M227.3 181.9v-45.5l45.4 45.5z" class="st2"/><path d="M181.8 45.5V0l45.5 45.5h-45.5z" class="st3"/><path d="M181.8 409.1v-45.5l45.5 45.5z" class="st3"/><path d="M318.2 363.7v45.5l-45.5-45.5z" class="st3"/><path d="M90.9 318.2h45.5l-45.5 45.5z" class="st3"/><path d="M136.4 272.8v45.4l-45.5-45.4z" class="st0"/><path d="M409.1 363.7v45.4l-45.5-45.4z" class="st0"/><path d="M136.4 272.8h45.5l-45.5 45.4z" class="st0"/><path d="M272.7 318.2v45.4l-45.5-45.4h45.5z" class="st4"/><path d="M0 227.3h45.5L0 272.8v-45.5z" class="st0"/><path d="M181.8 227.3v45.4l-45.5-45.4h45.5z" class="st4"/><path d="M272.7 227.3v45.4l-45.5-45.4h45.5z" class="st2"/><path d="M318.2 272.8v-45.4l45.5 45.4h-45.5z" class="st5"/><path d="M318.2 181.9h45.5l-45.5 45.5v-45.5z" class="st3"/><path d="M45.5 91v45.4L0 91z" class="st0"/><path d="M90.9 136.4H45.5L90.9 91z" class="st0"/><path d="M136.4 181.9H90.9l45.5-45.5z" class="st0"/><path d="M90.9 136.4V91l45.5 45.4z" class="st3"/><path d="M90.9 136.4h45.5l-45.5 45.5z" class="st3"/><path d="M90.9 136.4v45.5l-45.4-45.5z" class="st3"/><path d="M136.4 91v45.4L90.9 91z" class="st2"/><path d="M136.4 181.9v-45.5l45.5 45.5z" class="st2"/><path d="M227.3 91v45.4L181.8 91z" class="st2"/><path d="M272.7 136.4h-45.4L272.7 91z" class="st5"/><path d="M318.2 181.9h-45.5l45.5-45.5z" class="st5"/><path d="M272.7 136.4V91l45.5 45.4h-45.5z" class="st3"/><path d="M272.7 136.4v45.4l-45.5-45.4h45.5z" class="st5"/><path d="M318.2 91v45.4L272.7 91h45.5z" class="st3"/><path d="M318.2 181.9v-45.4l45.5 45.4h-45.5z" class="st5"/><path d="M363.6 136.4v45.4l-45.5-45.4h45.5z" class="st5"/><path d="M136.4 91H90.9l45.5-45.4V91z" class="st2"/><path d="M90.9 45.5h45.5L90.9 91z" class="st2"/><path d="M136.4 91V45.5L181.9 91z" class="st2"/><path d="M318.2.1h45.5l-45.5 45.5z" class="st2"/><path d="M45.5 272.8v45.4L0 272.8h45.5z" class="st0"/><path d="M90.9 318.2v45.5l-45.4-45.5z" class="st3"/><path d="M272.7 227.3h-45.5l45.5-45.5v45.5z" class="st5"/><path d="M0 136.4h45.5L0 181.9z" class="st0"/><path d="M45.5 91h45.4l-45.4 45.4z" class="st0"/><path d="M227.3 181.9h-45.5l45.5-45.4v45.4z" class="st2"/><path d="M272.7 136.4h45.5l-45.5 45.4v-45.4z" class="st3"/><path d="M363.6 136.4h-45.5L363.6 91v45.4z" class="st5"/><path d="M318.2 91h45.5l-45.5 45.4V91z" class="st5"/><path d="M45.5 91H0l45.5-45.5z" class="st0"/><path d="M0 45.5V0l45.5 45.5z" class="st0"/><path d="M0 45.5h45.5L0 91z" class="st0"/><path d="M45.5.1v45.5L0 .1h45.5z" class="st2"/><path d="M90.9 45.5H45.5L90.9 0v45.5z" class="st5"/><path d="M45.5 91V45.5L90.9 91H45.5z" class="st0"/><path d="M45.5.1H91L45.5 45.6V.1z" class="st2"/><path d="M136.4.1v45.5L90.9.1z" class="st5"/><path d="M181.8 45.5h-45.5L181.8 0z" class="st5"/><path d="M227.3 91h-45.5l45.5-45.5z" class="st5"/><path d="M181.8 45.5h45.5L181.8 91V45.5z" class="st3"/><path d="M136.4.1h45.5l-45.5 45.5z" class="st5"/><path d="M181.8 45.5V91l-45.5-45.5z" class="st5"/><path d="M227.3.1v45.5L181.8.1z" class="st5"/><path d="M272.7 45.5h-45.4L272.7 0z" class="st5"/><path d="M318.2 91h-45.5l45.5-45.5z" class="st5"/><path d="M272.7 45.5V0l45.5 45.5z" class="st5"/><path d="M227.3 91V45.5L272.7 91z" class="st5"/><path d="M227.3.1h45.4l-45.4 45.5z" class="st5"/><path d="M272.7 45.5V91l-45.4-45.5z" class="st5"/><path d="M318.2.1v45.5L272.7.1z" class="st5"/><path d="M363.6 45.5h-45.5L363.6 0z" class="st5"/><path d="M363.6 45.5V91l-45.5-45.5z" class="st5"/><path d="M90.9 45.5V0l45.5 45.5z" class="st3"/><path d="M90.9 45.5V91L45.5 45.5z" class="st3"/><path d="M272.7 45.5h45.5L272.7 91z" class="st5"/><path d="M318.2 91V45.5L363.7 91z" class="st5"/></svg>